# xmcd
#
# Track frame offsets:
#	150
#	11722
#	22917
#	36808
#	56097
#	69737
#	85180
#	96152
#	110012
#	125663
#	137311
#	154978
#	167835
#	186873
#
# Disc length: 2683 seconds
#
# Revision: 1
# Processed by: cddbd v1.5.1PL2 Copyright (c) Steve Scherf et al.
# Submitted via: audiograbber 1.83.01
#
DISCID=bc0a790e
DTITLE=Johnny Crowley - Live At The Irish Harbour Bar
DYEAR=1900
DGENRE=Irish Country and Western
TTITLE0=Pretty Girl From Omagh
TTITLE1=My Name Is Dan
TTITLE2=Four Country Roads
TTITLE3=Yellow JCB
TTITLE4=Smiling Irish Eyes
TTITLE5=I Want To Dance
TTITLE6=Advice To A Bishop
TTITLE7=Walk Tall
TTITLE8=Alice
TTITLE9=County Of Mayo
TTITLE10=Isle Of Innishfree
TTITLE11=Old Dungarvan Road
TTITLE12=Fields of Athenry
TTITLE13=Molly Malone
EXTD=
EXTT0=
EXTT1=
EXTT2=
EXTT3=
EXTT4=
EXTT5=
EXTT6=
EXTT7=
EXTT8=
EXTT9=
EXTT10=
EXTT11=
EXTT12=
EXTT13=
PLAYORDER=
